<?xml version="1.0" encoding="UTF-8" standalone="no"?>
<svg width="120px" height="900px" viewBox="0 0 120 900" version="1.1" xmlns="http://www.w3.org/2000/svg" xmlns:xlink="http://www.w3.org/1999/xlink" xmlns:sketch="http://www.bohemiancoding.com/sketch/ns">
    <!-- Generator: Sketch 3.0.4 (8053) - http://www.bohemiancoding.com/sketch -->
    <title>mix-logo-sprite</title>
    <desc>Created with Sketch.</desc>
    <defs></defs>
    <g id="Page-1" stroke="none" stroke-width="1" fill="none" fill-rule="evenodd" sketch:type="MSPage">
        <g id="Artboard-3" sketch:type="MSArtboardGroup" transform="translate(-954.000000, -825.000000)">
            <g id="mix-logo-sprite" sketch:type="MSLayerGroup" transform="translate(954.000000, 826.000000)">
                <g id="Mix--2-+-Fill-1-+-Fill-2-+-Fill-20-+-Group-2-+-Path-8" transform="translate(0.000000, 699.500000)" sketch:type="MSShapeGroup">
                    <g id="Mix--2-+-Fill-1-+-Fill-2-+-Fill-20">
                        <g id="Fill-1-+-Fill-2-+-Fill-4" transform="translate(0.125000, 0.000000)">
                            <path d="M16.1330532,2.70128551 C12.42948,-1.04332773 6.42321536,-1.04332773 2.71902069,2.70254209 C-0.98393096,6.44464217 -0.98393096,12.5164446 2.71902069,16.2616861 L5.87939483,19.4552883 L19.2921843,5.89425942 L16.1330532,2.70128551" id="Fill-1" fill="#4F6367"></path>
                            <path d="M19.2921843,5.89425942 L32.7055953,19.4552883 L35.8659694,16.2616861 C39.5695426,12.5164446 39.5695426,6.44589875 35.8641049,2.70128551 C32.1611532,-1.04332773 26.1555101,-1.04332773 22.4519369,2.70128551 L19.2921843,5.89425942 Z" id="Fill-2" fill="#7A9E9F"></path>
                            <path d="M5.87939483,19.4552883 L19.2921843,33.0150606 L32.7055953,19.4552883 L19.2921843,5.89425942 L5.87939483,19.4552883" id="Fill-3" fill="#2D3C3F"></path>
                        </g>
                        <path d="M79.478,31.8566769 L79.478,1.6632 L69.104,1.6632 L62.636,21.0245538 L62.468,21.0245538 L55.706,1.6632 L45.5,1.6632 L45.5,31.8566769 L52.262,31.8566769 L52.094,10.4909538 L52.22,10.4909538 L59.738,31.8566769 L64.778,31.8566769 L72.506,10.4909538 L72.632,10.4909538 L72.464,31.8566769 L79.478,31.8566769 Z M92.6776,3.83815385 C92.6776,1.70584615 90.9136,0 88.7296,0 C86.5036,0 84.7816,1.79113846 84.7816,3.83815385 C84.7816,5.92781538 86.5036,7.67630769 88.7296,7.67630769 C90.9136,7.67630769 92.6776,6.01310769 92.6776,3.83815385 Z M92.1736,31.8566769 L92.1736,10.6188923 L85.2856,10.6188923 L85.2856,31.8566769 L92.1736,31.8566769 Z M119.9892,31.8566769 L111.7152,20.7260308 L119.2332,10.6188923 L111.4632,10.6188923 L107.5152,16.2908308 L103.6092,10.6188923 L95.5872,10.6188923 L103.1472,20.7260308 L94.7892,31.8566769 L102.7692,31.8566769 L107.3892,25.3318154 L111.8832,31.8566769 L119.9892,31.8566769 Z" id="Mix-" fill="#2D3C3F"></path>
                    </g>
                </g>
                <g id="Mix--2-+-Fill-1-+-Fill-2-+-Fill-20-+-Group-2-+-Path-8" transform="translate(0.000000, 799.500000)" sketch:type="MSShapeGroup">
                    <g id="Mix--2-+-Fill-1-+-Fill-2-+-Fill-20">
                        <g id="Fill-1-+-Fill-2-+-Fill-4" transform="translate(0.125000, 0.000000)">
                            <path d="M16.1330532,2.70128551 C12.42948,-1.04332773 6.42321536,-1.04332773 2.71902069,2.70254209 C-0.98393096,6.44464217 -0.98393096,12.5164446 2.71902069,16.2616861 L5.87939483,19.4552883 L19.2921843,5.89425942 L16.1330532,2.70128551" id="Fill-1" fill="#B15A1B"></path>
                            <path d="M19.2921843,5.89425942 L32.7055953,19.4552883 L35.8659694,16.2616861 C39.5695426,12.5164446 39.5695426,6.44589875 35.8641049,2.70128551 C32.1611532,-1.04332773 26.1555101,-1.04332773 22.4519369,2.70128551 L19.2921843,5.89425942 Z" id="Fill-2" fill="#D88715"></path>
                            <path d="M5.87939483,19.4552883 L19.2921843,33.0150606 L32.7055953,19.4552883 L19.2921843,5.89425942 L5.87939483,19.4552883" id="Fill-3" fill="#71220B"></path>
                        </g>
                        <path d="M79.478,31.8566769 L79.478,1.6632 L69.104,1.6632 L62.636,21.0245538 L62.468,21.0245538 L55.706,1.6632 L45.5,1.6632 L45.5,31.8566769 L52.262,31.8566769 L52.094,10.4909538 L52.22,10.4909538 L59.738,31.8566769 L64.778,31.8566769 L72.506,10.4909538 L72.632,10.4909538 L72.464,31.8566769 L79.478,31.8566769 Z M92.6776,3.83815385 C92.6776,1.70584615 90.9136,0 88.7296,0 C86.5036,0 84.7816,1.79113846 84.7816,3.83815385 C84.7816,5.92781538 86.5036,7.67630769 88.7296,7.67630769 C90.9136,7.67630769 92.6776,6.01310769 92.6776,3.83815385 Z M92.1736,31.8566769 L92.1736,10.6188923 L85.2856,10.6188923 L85.2856,31.8566769 L92.1736,31.8566769 Z M119.9892,31.8566769 L111.7152,20.7260308 L119.2332,10.6188923 L111.4632,10.6188923 L107.5152,16.2908308 L103.6092,10.6188923 L95.5872,10.6188923 L103.1472,20.7260308 L94.7892,31.8566769 L102.7692,31.8566769 L107.3892,25.3318154 L111.8832,31.8566769 L119.9892,31.8566769 Z" id="Mix-" fill="#71220B"></path>
                    </g>
                </g>
                <g id="Mix--2-+-Fill-1-+-Fill-2-+-Fill-20-+-Group-2-+-Path-7" transform="translate(0.000000, 599.500000)" sketch:type="MSShapeGroup">
                    <g id="Mix--2-+-Fill-1-+-Fill-2-+-Fill-20">
                        <g id="Fill-1-+-Fill-2-+-Fill-4" transform="translate(0.125000, 0.000000)">
                            <path d="M16.1330532,2.70128551 C12.42948,-1.04332773 6.42321536,-1.04332773 2.71902069,2.70254209 C-0.98393096,6.44464217 -0.98393096,12.5164446 2.71902069,16.2616861 L5.87939483,19.4552883 L19.2921843,5.89425942 L16.1330532,2.70128551" id="Fill-1" fill="#B33C12"></path>
                            <path d="M19.2921843,5.89425942 L32.7055953,19.4552883 L35.8659694,16.2616861 C39.5695426,12.5164446 39.5695426,6.44589875 35.8641049,2.70128551 C32.1611532,-1.04332773 26.1555101,-1.04332773 22.4519369,2.70128551 L19.2921843,5.89425942 Z" id="Fill-2" fill="#EB5E28"></path>
                            <path d="M5.87939483,19.4552883 L19.2921843,33.0150606 L32.7055953,19.4552883 L19.2921843,5.89425942 L5.87939483,19.4552883" id="Fill-3" fill="#71220B"></path>
                        </g>
                        <path d="M79.478,31.8566769 L79.478,1.6632 L69.104,1.6632 L62.636,21.0245538 L62.468,21.0245538 L55.706,1.6632 L45.5,1.6632 L45.5,31.8566769 L52.262,31.8566769 L52.094,10.4909538 L52.22,10.4909538 L59.738,31.8566769 L64.778,31.8566769 L72.506,10.4909538 L72.632,10.4909538 L72.464,31.8566769 L79.478,31.8566769 Z M92.6776,3.83815385 C92.6776,1.70584615 90.9136,0 88.7296,0 C86.5036,0 84.7816,1.79113846 84.7816,3.83815385 C84.7816,5.92781538 86.5036,7.67630769 88.7296,7.67630769 C90.9136,7.67630769 92.6776,6.01310769 92.6776,3.83815385 Z M92.1736,31.8566769 L92.1736,10.6188923 L85.2856,10.6188923 L85.2856,31.8566769 L92.1736,31.8566769 Z M119.9892,31.8566769 L111.7152,20.7260308 L119.2332,10.6188923 L111.4632,10.6188923 L107.5152,16.2908308 L103.6092,10.6188923 L95.5872,10.6188923 L103.1472,20.7260308 L94.7892,31.8566769 L102.7692,31.8566769 L107.3892,25.3318154 L111.8832,31.8566769 L119.9892,31.8566769 Z" id="Mix-" fill="#71220B"></path>
                    </g>
                </g>
                <g id="Mix--2-+-Fill-1-+-Fill-2-+-Fill-20-+-Group-2-+-Path-6" transform="translate(0.000000, 499.500000)" sketch:type="MSShapeGroup">
                    <g id="Mix--2-+-Fill-1-+-Fill-2-+-Fill-20">
                        <g id="Fill-1-+-Fill-2-+-Fill-4" transform="translate(0.125000, 0.000000)">
                            <path d="M16.1330532,2.70128551 C12.42948,-1.04332773 6.42321536,-1.04332773 2.71902069,2.70254209 C-0.98393096,6.44464217 -0.98393096,12.5164446 2.71902069,16.2616861 L5.87939483,19.4552883 L19.2921843,5.89425942 L16.1330532,2.70128551" id="Fill-1" fill="#724128"></path>
                            <path d="M19.2921843,5.89425942 L32.7055953,19.4552883 L35.8659694,16.2616861 C39.5695426,12.5164446 39.5695426,6.44589875 35.8641049,2.70128551 C32.1611532,-1.04332773 26.1555101,-1.04332773 22.4519369,2.70128551 L19.2921843,5.89425942 Z" id="Fill-2" fill="#A57F63"></path>
                            <path d="M5.87939483,19.4552883 L19.2921843,33.0150606 L32.7055953,19.4552883 L19.2921843,5.89425942 L5.87939483,19.4552883" id="Fill-3" fill="#4C2A1E"></path>
                        </g>
                        <path d="M79.478,31.8566769 L79.478,1.6632 L69.104,1.6632 L62.636,21.0245538 L62.468,21.0245538 L55.706,1.6632 L45.5,1.6632 L45.5,31.8566769 L52.262,31.8566769 L52.094,10.4909538 L52.22,10.4909538 L59.738,31.8566769 L64.778,31.8566769 L72.506,10.4909538 L72.632,10.4909538 L72.464,31.8566769 L79.478,31.8566769 Z M92.6776,3.83815385 C92.6776,1.70584615 90.9136,0 88.7296,0 C86.5036,0 84.7816,1.79113846 84.7816,3.83815385 C84.7816,5.92781538 86.5036,7.67630769 88.7296,7.67630769 C90.9136,7.67630769 92.6776,6.01310769 92.6776,3.83815385 Z M92.1736,31.8566769 L92.1736,10.6188923 L85.2856,10.6188923 L85.2856,31.8566769 L92.1736,31.8566769 Z M119.9892,31.8566769 L111.7152,20.7260308 L119.2332,10.6188923 L111.4632,10.6188923 L107.5152,16.2908308 L103.6092,10.6188923 L95.5872,10.6188923 L103.1472,20.7260308 L94.7892,31.8566769 L102.7692,31.8566769 L107.3892,25.3318154 L111.8832,31.8566769 L119.9892,31.8566769 Z" id="Mix-" fill="#4C2A1E"></path>
                    </g>
                </g>
                <g id="Mix--2-+-Fill-1-+-Fill-2-+-Fill-20-+-Group-2-+-Path-5" transform="translate(0.000000, 399.500000)" sketch:type="MSShapeGroup">
                    <g id="Mix--2-+-Fill-1-+-Fill-2-+-Fill-20">
                        <g id="Fill-1-+-Fill-2-+-Fill-4" transform="translate(0.125000, 0.000000)">
                            <path d="M16.1330532,2.70128551 C12.42948,-1.04332773 6.42321536,-1.04332773 2.71902069,2.70254209 C-0.98393096,6.44464217 -0.98393096,12.5164446 2.71902069,16.2616861 L5.87939483,19.4552883 L19.2921843,5.89425942 L16.1330532,2.70128551" id="Fill-1" fill="#D88715"></path>
                            <path d="M19.2921843,5.89425942 L32.7055953,19.4552883 L35.8659694,16.2616861 C39.5695426,12.5164446 39.5695426,6.44589875 35.8641049,2.70128551 C32.1611532,-1.04332773 26.1555101,-1.04332773 22.4519369,2.70128551 L19.2921843,5.89425942 Z" id="Fill-2" fill="#F6BC3A"></path>
                            <path d="M5.87939483,19.4552883 L19.2921843,33.0150606 L32.7055953,19.4552883 L19.2921843,5.89425942 L5.87939483,19.4552883" id="Fill-3" fill="#B15A1B"></path>
                        </g>
                        <path d="M79.478,31.8566769 L79.478,1.6632 L69.104,1.6632 L62.636,21.0245538 L62.468,21.0245538 L55.706,1.6632 L45.5,1.6632 L45.5,31.8566769 L52.262,31.8566769 L52.094,10.4909538 L52.22,10.4909538 L59.738,31.8566769 L64.778,31.8566769 L72.506,10.4909538 L72.632,10.4909538 L72.464,31.8566769 L79.478,31.8566769 Z M92.6776,3.83815385 C92.6776,1.70584615 90.9136,0 88.7296,0 C86.5036,0 84.7816,1.79113846 84.7816,3.83815385 C84.7816,5.92781538 86.5036,7.67630769 88.7296,7.67630769 C90.9136,7.67630769 92.6776,6.01310769 92.6776,3.83815385 Z M92.1736,31.8566769 L92.1736,10.6188923 L85.2856,10.6188923 L85.2856,31.8566769 L92.1736,31.8566769 Z M119.9892,31.8566769 L111.7152,20.7260308 L119.2332,10.6188923 L111.4632,10.6188923 L107.5152,16.2908308 L103.6092,10.6188923 L95.5872,10.6188923 L103.1472,20.7260308 L94.7892,31.8566769 L102.7692,31.8566769 L107.3892,25.3318154 L111.8832,31.8566769 L119.9892,31.8566769 Z" id="Mix-" fill="#B15A1B"></path>
                    </g>
                </g>
                <g id="Mix--2-+-Fill-1-+-Fill-2-+-Fill-20-+-Group-2-+-Path-4" transform="translate(0.000000, 299.500000)" sketch:type="MSShapeGroup">
                    <g id="Mix--2-+-Fill-1-+-Fill-2-+-Fill-20">
                        <g id="Fill-1-+-Fill-2-+-Fill-4" transform="translate(0.125000, 0.000000)">
                            <path d="M16.1330532,2.70128551 C12.42948,-1.04332773 6.42321536,-1.04332773 2.71902069,2.70254209 C-0.98393096,6.44464217 -0.98393096,12.5164446 2.71902069,16.2616861 L5.87939483,19.4552883 L19.2921843,5.89425942 L16.1330532,2.70128551" id="Fill-1" fill="#5A425E"></path>
                            <path d="M19.2921843,5.89425942 L32.7055953,19.4552883 L35.8659694,16.2616861 C39.5695426,12.5164446 39.5695426,6.44589875 35.8641049,2.70128551 C32.1611532,-1.04332773 26.1555101,-1.04332773 22.4519369,2.70128551 L19.2921843,5.89425942 Z" id="Fill-2" fill="#83637F"></path>
                            <path d="M5.87939483,19.4552883 L19.2921843,33.0150606 L32.7055953,19.4552883 L19.2921843,5.89425942 L5.87939483,19.4552883" id="Fill-3" fill="#39283F"></path>
                        </g>
                        <path d="M79.478,31.8566769 L79.478,1.6632 L69.104,1.6632 L62.636,21.0245538 L62.468,21.0245538 L55.706,1.6632 L45.5,1.6632 L45.5,31.8566769 L52.262,31.8566769 L52.094,10.4909538 L52.22,10.4909538 L59.738,31.8566769 L64.778,31.8566769 L72.506,10.4909538 L72.632,10.4909538 L72.464,31.8566769 L79.478,31.8566769 Z M92.6776,3.83815385 C92.6776,1.70584615 90.9136,0 88.7296,0 C86.5036,0 84.7816,1.79113846 84.7816,3.83815385 C84.7816,5.92781538 86.5036,7.67630769 88.7296,7.67630769 C90.9136,7.67630769 92.6776,6.01310769 92.6776,3.83815385 Z M92.1736,31.8566769 L92.1736,10.6188923 L85.2856,10.6188923 L85.2856,31.8566769 L92.1736,31.8566769 Z M119.9892,31.8566769 L111.7152,20.7260308 L119.2332,10.6188923 L111.4632,10.6188923 L107.5152,16.2908308 L103.6092,10.6188923 L95.5872,10.6188923 L103.1472,20.7260308 L94.7892,31.8566769 L102.7692,31.8566769 L107.3892,25.3318154 L111.8832,31.8566769 L119.9892,31.8566769 Z" id="Mix-" fill="#39283F"></path>
                    </g>
                </g>
                <g id="Mix--2-+-Fill-1-+-Fill-2-+-Fill-20-+-Group-2-+-Path-3" transform="translate(0.000000, 199.500000)" sketch:type="MSShapeGroup">
                    <g id="Mix--2-+-Fill-1-+-Fill-2-+-Fill-20">
                        <g id="Fill-1-+-Fill-2-+-Fill-4" transform="translate(0.125000, 0.000000)">
                            <path d="M16.1330532,2.70128551 C12.42948,-1.04332773 6.42321536,-1.04332773 2.71902069,2.70254209 C-0.98393096,6.44464217 -0.98393096,12.5164446 2.71902069,16.2616861 L5.87939483,19.4552883 L19.2921843,5.89425942 L16.1330532,2.70128551" id="Fill-1" fill="#60793B"></path>
                            <path d="M19.2921843,5.89425942 L32.7055953,19.4552883 L35.8659694,16.2616861 C39.5695426,12.5164446 39.5695426,6.44589875 35.8641049,2.70128551 C32.1611532,-1.04332773 26.1555101,-1.04332773 22.4519369,2.70128551 L19.2921843,5.89425942 Z" id="Fill-2" fill="#91AF50"></path>
                            <path d="M5.87939483,19.4552883 L19.2921843,33.0150606 L32.7055953,19.4552883 L19.2921843,5.89425942 L5.87939483,19.4552883" id="Fill-3" fill="#2D401B"></path>
                        </g>
                        <path d="M79.478,31.8566769 L79.478,1.6632 L69.104,1.6632 L62.636,21.0245538 L62.468,21.0245538 L55.706,1.6632 L45.5,1.6632 L45.5,31.8566769 L52.262,31.8566769 L52.094,10.4909538 L52.22,10.4909538 L59.738,31.8566769 L64.778,31.8566769 L72.506,10.4909538 L72.632,10.4909538 L72.464,31.8566769 L79.478,31.8566769 Z M92.6776,3.83815385 C92.6776,1.70584615 90.9136,0 88.7296,0 C86.5036,0 84.7816,1.79113846 84.7816,3.83815385 C84.7816,5.92781538 86.5036,7.67630769 88.7296,7.67630769 C90.9136,7.67630769 92.6776,6.01310769 92.6776,3.83815385 Z M92.1736,31.8566769 L92.1736,10.6188923 L85.2856,10.6188923 L85.2856,31.8566769 L92.1736,31.8566769 Z M119.9892,31.8566769 L111.7152,20.7260308 L119.2332,10.6188923 L111.4632,10.6188923 L107.5152,16.2908308 L103.6092,10.6188923 L95.5872,10.6188923 L103.1472,20.7260308 L94.7892,31.8566769 L102.7692,31.8566769 L107.3892,25.3318154 L111.8832,31.8566769 L119.9892,31.8566769 Z" id="Mix-" fill="#2D401B"></path>
                    </g>
                </g>
                <g id="Mix--2-+-Fill-1-+-Fill-2-+-Fill-20-+-Group-2-+-Path-2" transform="translate(0.000000, 99.500000)" fill="#FFFFFF" sketch:type="MSShapeGroup">
                    <g id="Mix--2-+-Fill-1-+-Fill-2-+-Fill-20">
                        <g id="Fill-1-+-Fill-2-+-Fill-4" transform="translate(0.125000, 0.000000)">
                            <path d="M16.1330532,2.70128551 C12.42948,-1.04332773 6.42321536,-1.04332773 2.71902069,2.70254209 C-0.98393096,6.44464217 -0.98393096,12.5164446 2.71902069,16.2616861 L5.87939483,19.4552883 L19.2921843,5.89425942 L16.1330532,2.70128551" id="Fill-1" fill-opacity="0.8"></path>
                            <path d="M19.2921843,5.89425942 L32.7055953,19.4552883 L35.8659694,16.2616861 C39.5695426,12.5164446 39.5695426,6.44589875 35.8641049,2.70128551 C32.1611532,-1.04332773 26.1555101,-1.04332773 22.4519369,2.70128551 L19.2921843,5.89425942 Z" id="Fill-2" fill-opacity="0.6"></path>
                            <path d="M5.87939483,19.4552883 L19.2921843,33.0150606 L32.7055953,19.4552883 L19.2921843,5.89425942 L5.87939483,19.4552883" id="Fill-3"></path>
                        </g>
                        <path d="M79.478,31.8566769 L79.478,1.6632 L69.104,1.6632 L62.636,21.0245538 L62.468,21.0245538 L55.706,1.6632 L45.5,1.6632 L45.5,31.8566769 L52.262,31.8566769 L52.094,10.4909538 L52.22,10.4909538 L59.738,31.8566769 L64.778,31.8566769 L72.506,10.4909538 L72.632,10.4909538 L72.464,31.8566769 L79.478,31.8566769 Z M92.6776,3.83815385 C92.6776,1.70584615 90.9136,0 88.7296,0 C86.5036,0 84.7816,1.79113846 84.7816,3.83815385 C84.7816,5.92781538 86.5036,7.67630769 88.7296,7.67630769 C90.9136,7.67630769 92.6776,6.01310769 92.6776,3.83815385 Z M92.1736,31.8566769 L92.1736,10.6188923 L85.2856,10.6188923 L85.2856,31.8566769 L92.1736,31.8566769 Z M119.9892,31.8566769 L111.7152,20.7260308 L119.2332,10.6188923 L111.4632,10.6188923 L107.5152,16.2908308 L103.6092,10.6188923 L95.5872,10.6188923 L103.1472,20.7260308 L94.7892,31.8566769 L102.7692,31.8566769 L107.3892,25.3318154 L111.8832,31.8566769 L119.9892,31.8566769 Z" id="Mix-"></path>
                    </g>
                </g>
                <g id="Mix--2-+-Fill-1-+-Fill-2-+-Fill-20-+-Group-2-+-Path-16" transform="translate(0.000000, -0.500000)" sketch:type="MSShapeGroup">
                    <g id="Mix--2-+-Fill-1-+-Fill-2-+-Fill-20">
                        <g id="Fill-1-+-Fill-2-+-Fill-4" transform="translate(0.125000, 0.000000)">
                            <path d="M16.1330532,2.70128551 C12.42948,-1.04332773 6.42321536,-1.04332773 2.71902069,2.70254209 C-0.98393096,6.44464217 -0.98393096,12.5164446 2.71902069,16.2616861 L5.87939483,19.4552883 L19.2921843,5.89425942 L16.1330532,2.70128551" id="Fill-1" fill="#FFC0A4"></path>
                            <path d="M19.2921843,5.89425942 L32.7055953,19.4552883 L35.8659694,16.2616861 C39.5695426,12.5164446 39.5695426,6.44589875 35.8641049,2.70128551 C32.1611532,-1.04332773 26.1555101,-1.04332773 22.4519369,2.70128551 L19.2921843,5.89425942 Z" id="Fill-2" fill="#D9D4CB"></path>
                            <path d="M5.87939483,19.4552883 L19.2921843,33.0150606 L32.7055953,19.4552883 L19.2921843,5.89425942 L5.87939483,19.4552883" id="Fill-3" fill="#FF8F5E"></path>
                        </g>
                        <path d="M79.478,31.8566769 L79.478,1.6632 L69.104,1.6632 L62.636,21.0245538 L62.468,21.0245538 L55.706,1.6632 L45.5,1.6632 L45.5,31.8566769 L52.262,31.8566769 L52.094,10.4909538 L52.22,10.4909538 L59.738,31.8566769 L64.778,31.8566769 L72.506,10.4909538 L72.632,10.4909538 L72.464,31.8566769 L79.478,31.8566769 Z M92.6776,3.83815385 C92.6776,1.70584615 90.9136,0 88.7296,0 C86.5036,0 84.7816,1.79113846 84.7816,3.83815385 C84.7816,5.92781538 86.5036,7.67630769 88.7296,7.67630769 C90.9136,7.67630769 92.6776,6.01310769 92.6776,3.83815385 Z M92.1736,31.8566769 L92.1736,10.6188923 L85.2856,10.6188923 L85.2856,31.8566769 L92.1736,31.8566769 Z M119.9892,31.8566769 L111.7152,20.7260308 L119.2332,10.6188923 L111.4632,10.6188923 L107.5152,16.2908308 L103.6092,10.6188923 L95.5872,10.6188923 L103.1472,20.7260308 L94.7892,31.8566769 L102.7692,31.8566769 L107.3892,25.3318154 L111.8832,31.8566769 L119.9892,31.8566769 Z" id="Mix-" fill="#FF8F5E"></path>
                    </g>
                </g>
            </g>
        </g>
    </g>
</svg>
